<?xml version="1.0" encoding="UTF-8" standalone="no"?>
<svg
   xmlns:dc="http://purl.org/dc/elements/1.1/"
   xmlns:cc="http://creativecommons.org/ns#"
   xmlns:rdf="http://www.w3.org/1999/02/22-rdf-syntax-ns#"
   xmlns:svg="http://www.w3.org/2000/svg"
   xmlns="http://www.w3.org/2000/svg"
   xmlns:sodipodi="http://sodipodi.sourceforge.net/DTD/sodipodi-0.dtd"
   xmlns:inkscape="http://www.inkscape.org/namespaces/inkscape"
   width="20.319916mm"
   height="48.000008mm"
   viewBox="0 0 20.319917 48.000007"
   version="1.1"
   id="svg753"
   inkscape:version="1.0.2-2 (e86c870879, 2021-01-15)"
   sodipodi:docname="TINYFOX_BOARD.svg">
  <defs
     id="defs747">
	

	
	
	
	
	
	
	
	
	
	
	
	
	

	
	
	
	
	
	
	
	

		
		
		
		
	
		
		
	
		
		
	
		
		
		
		
		
		
	
		
		
		
		
		
		
	
		
		
	
		
		
	
		
		
		
		
		
		
	
			
			
		
			
			
			
		
			
			
		
			
			
		</defs>
  <sodipodi:namedview
     id="base"
     pagecolor="#ffffff"
     bordercolor="#666666"
     borderopacity="1.0"
     inkscape:pageopacity="0.0"
     inkscape:pageshadow="2"
     inkscape:zoom="7.9195959"
     inkscape:cx="18.885201"
     inkscape:cy="161.07129"
     inkscape:document-units="mm"
     inkscape:current-layer="layer1"
     inkscape:document-rotation="0"
     showgrid="false"
     inkscape:window-width="1366"
     inkscape:window-height="705"
     inkscape:window-x="1432"
     inkscape:window-y="129"
     inkscape:window-maximized="1" />
  <metadata
     id="metadata750">
    <rdf:RDF>
      <cc:Work
         rdf:about="">
        <dc:format>image/svg+xml</dc:format>
        <dc:type
           rdf:resource="http://purl.org/dc/dcmitype/StillImage" />
        <dc:title></dc:title>
      </cc:Work>
    </rdf:RDF>
  </metadata>
  <g
     inkscape:label="Capa 1"
     inkscape:groupmode="layer"
     id="layer1"
     transform="translate(39.436462,-67.238744)">
    <path
       class="st12"
       d="m -21.796008,86.749582 c 0,0.685429 0.06115,2.023755 0.100547,2.778113 0.03058,0.619258 -0.01823,1.2909 -0.419236,1.785536 -0.269886,0.334167 -0.512725,0.705281 -0.906677,0.926405 l -0.298698,-0.297223 c 0,0 1.191263,-1.064813 1.255942,-1.770094 0.06468,-0.705281 -0.156405,-3.343331 -0.156405,-3.525302 0,-0.170394 0.167577,-1.430966 0.606216,-1.790501 l 0.241075,0.133448 c 0.07938,0.04411 0.08996,0.146681 0.01999,0.202376 -0.163461,0.131241 -0.442755,0.931367 -0.442756,1.557242 z"
       id="path1024"
       style="fill:#c8ab37;stroke-width:0.0569415" />
    <path
       class="st0"
       d="m -19.616336,87.102498 h -19.000832 c -0.276355,0 -0.49979,0.210097 -0.49979,0.469269 v 20.433853 c 0.266947,0.01 0.479798,0.21561 0.479798,0.46817 0,0.25255 -0.212851,0.45823 -0.479798,0.46816 v 1.57599 c 0.266947,0.01 0.479798,0.21561 0.479798,0.46817 0,0.25255 -0.212851,0.45824 -0.479798,0.46816 v 3.31521 c 0,0.25917 0.223435,0.46927 0.49979,0.46927 h 2.610079 c 0.01,-0.25035 0.229903,-0.45052 0.499201,-0.45052 0.269299,0 0.489206,0.20017 0.499202,0.45052 h 1.546997 c 0.01,-0.25035 0.229903,-0.45052 0.499201,-0.45052 0.269299,0 0.489206,0.20017 0.499202,0.45052 h 1.536413 c 0.01,-0.25035 0.229903,-0.45052 0.499202,-0.45052 0.269298,0 0.489206,0.20017 0.499202,0.45052 h 1.53994 c 0.01,-0.25035 0.229904,-0.45052 0.499202,-0.45052 0.269298,0 0.489206,0.20017 0.499202,0.45052 h 1.556992 c 0.01,-0.25035 0.229903,-0.45052 0.499202,-0.45052 0.269298,0 0.489206,0.20017 0.499202,0.45052 h 1.485257 c 0.01,-0.25035 0.229904,-0.45052 0.499202,-0.45052 0.269299,0 0.489206,0.20017 0.499202,0.45052 h 2.734732 c 0.276355,0 0.49979,-0.2101 0.49979,-0.46927 v -3.37035 c -0.266946,-0.009 -0.480386,-0.21561 -0.480386,-0.46817 0,-0.25255 0.21344,-0.45879 0.480386,-0.46816 v -1.57599 c -0.266946,-0.009 -0.480386,-0.21561 -0.480386,-0.46817 0,-0.25256 0.21344,-0.45879 0.480386,-0.46816 v -1.46847 c -0.266946,-0.009 -0.480386,-0.21561 -0.480386,-0.46816 0,-0.25256 0.21344,-0.4588 0.480386,-0.46817 v -1.46846 c -0.266946,-0.009 -0.480386,-0.21561 -0.480386,-0.46817 0,-0.25255 0.21344,-0.45879 0.480386,-0.46816 v -1.46846 c -0.266946,-0.009 -0.480386,-0.21561 -0.480386,-0.46817 0,-0.25256 0.21344,-0.45879 0.480386,-0.46816 v -1.413324 c -0.266946,-0.0094 -0.480386,-0.215612 -0.480386,-0.468167 0,-0.252555 0.21344,-0.45879 0.480386,-0.468165 V 87.571767 c 0,-0.259172 -0.223435,-0.469269 -0.49979,-0.469269 z m -18.361689,27.127682 c -0.460983,0 -0.834355,-0.35071 -0.834355,-0.78248 0,-0.43232 0.373372,-0.78303 0.834355,-0.78303 0.460982,0 0.834355,0.35071 0.834355,0.78303 0,0.43177 -0.373373,0.78248 -0.834355,0.78248 z m 2.593615,-2.22392 c 0.259891,0 0.47039,0.19741 0.47039,0.44114 0,0.24373 -0.210499,0.44115 -0.47039,0.44115 -0.259891,0 -0.470391,-0.19742 -0.470391,-0.44115 0,-0.24373 0.2105,-0.44114 0.470391,-0.44114 z m 2.528348,0 c 0.259891,0 0.470391,0.19741 0.470391,0.44114 0,0.24373 -0.2105,0.44115 -0.470391,0.44115 -0.259891,0 -0.47039,-0.19742 -0.47039,-0.44115 0,-0.24373 0.210499,-0.44114 0.47039,-0.44114 z m 5.527088,0.44114 c 0,0.24373 -0.2105,0.44115 -0.470391,0.44115 -0.25989,0 -0.47039,-0.19742 -0.47039,-0.44115 0,-0.24373 0.2105,-0.44114 0.47039,-0.44114 0.259891,0 0.470391,0.19741 0.470391,0.44114 z m -2.998739,-0.44114 c 0.25989,0 0.47039,0.19741 0.47039,0.44114 0,0.24373 -0.2105,0.44115 -0.47039,0.44115 -0.259891,0 -0.470391,-0.19742 -0.470391,-0.44115 0,-0.24373 0.2105,-0.44114 0.470391,-0.44114 z m 1.234775,-2.46932 c -0.648551,0 -1.174213,-0.49297 -1.174213,-1.1012 0,-0.60824 0.525662,-1.10121 1.174213,-1.10121 0.64855,0 1.174212,0.49297 1.174212,1.10121 0,0.60823 -0.525662,1.1012 -1.174212,1.1012 z m 3.821922,2.46932 c 0.25989,0 0.47039,0.19741 0.47039,0.44114 0,0.24373 -0.2105,0.44115 -0.47039,0.44115 -0.259891,0 -0.470391,-0.19742 -0.470391,-0.44115 0,-0.24373 0.2105,-0.44114 0.470391,-0.44114 z m 4.903232,-24.410781 c 0.460982,0 0.834942,0.35071 0.834942,0.783032 0,0.431771 -0.37396,0.782482 -0.834942,0.782482 -0.460395,0 -0.834355,-0.350711 -0.834355,-0.782482 0,-0.432322 0.37396,-0.783032 0.834355,-0.783032 z m -2.433683,24.410781 c 0.259891,0 0.470391,0.19741 0.470391,0.44114 0,0.24373 -0.2105,0.44115 -0.470391,0.44115 -0.25989,0 -0.47039,-0.19742 -0.47039,-0.44115 0,-0.24373 0.2105,-0.44114 0.47039,-0.44114 z m 2.433683,2.22392 c -0.460395,0 -0.834355,-0.35071 -0.834355,-0.78248 0,-0.43232 0.37396,-0.78303 0.834355,-0.78303 0.460982,0 0.834942,0.35071 0.834942,0.78303 0,0.43177 -0.37396,0.78248 -0.834942,0.78248 z"
       id="path934"
       style="fill:#f2f2f2;stroke-width:0.0569415" />
    <path
       class="st1"
       d="m -26.271184,86.879168 v 18.491712 c 0,0.086 -0.07467,0.15605 -0.166401,0.15605 H -38.51133 c -0.09173,0 -0.166401,-0.07 -0.166401,-0.15605 V 86.879168 c 0,-0.08602 0.07467,-0.156055 0.166401,-0.156055 h 12.073745 c 0.09173,0 0.166401,0.07003 0.166401,0.156055 z"
       id="path936"
       style="fill:#cccccc;stroke-width:0.0569415" />
    <polygon
       class="st2"
       points="280.36,563.93 332.5,517.94 363.1,549.7 314.91,599.63 "
       id="polygon938"
       transform="matrix(0.0587988,0,0,0.05514316,-40.575168,65.538212)"
       style="fill:#cccccc" />
    <polygon
       class="st3"
       points="290.77,558.68 322.77,527.68 352.77,557.68 321.77,588.68 "
       id="polygon940"
       transform="matrix(0.0587988,0,0,0.05514316,-40.575168,65.538212)"
       style="fill:#ffff00" />
    <path
       class="st4"
       d="m -21.666062,95.341439 c -0.503906,0 -0.911969,0.383244 -0.911969,0.855271 0,0.472577 0.408651,0.855269 0.911969,0.855269 0.503906,0 0.91197,-0.383244 0.91197,-0.855269 0,-0.472027 -0.408652,-0.855271 -0.91197,-0.855271 z m 0,1.404497 c -0.323393,0 -0.585048,-0.245938 -0.585048,-0.548676 0,-0.303288 0.262243,-0.548674 0.585048,-0.548674 0.323393,0 0.585048,0.245939 0.585048,0.548674 0,0.302738 -0.261655,0.548676 -0.585048,0.548676 z"
       id="path942"
       style="stroke-width:0.0569415" />
    <path
       class="st5"
       d="m -21.666062,95.392721 c -0.47333,0 -0.857875,0.360085 -0.857875,0.804539 0,0.444454 0.383957,0.804539 0.857875,0.804539 0.47333,0 0.857875,-0.360085 0.857875,-0.804539 0,-0.444454 -0.384545,-0.804539 -0.857875,-0.804539 z m 0,1.403945 c -0.353381,0 -0.639731,-0.268547 -0.639731,-0.599956 0,-0.331412 0.28635,-0.599959 0.639731,-0.599959 0.353381,0 0.639731,0.268547 0.639731,0.599959 0,0.331409 -0.28635,0.599956 -0.639731,0.599956 z"
       id="path944"
       style="fill:#ffff00;stroke-width:0.0569415" />
    <ellipse
       class="st5"
       cx="-21.666061"
       cy="96.196709"
       id="circle948"
       style="fill:#ffff00;stroke-width:0.0569415"
       rx="0.20403184"
       ry="0.19134678" />
    <path
       class="st4"
       d="m -21.666062,96.005362 c 0.112894,0 0.204032,0.08547 0.204032,0.191348 0,0.105875 -0.09114,0.191346 -0.204032,0.191346 -0.112894,0 -0.204032,-0.08547 -0.204032,-0.191346 0,-0.105325 0.09114,-0.191348 0.204032,-0.191348 z m 0,-0.05073 c -0.142881,0 -0.258715,0.108633 -0.258715,0.242629 0,0.133998 0.115834,0.242631 0.258715,0.242631 0.142881,0 0.258715,-0.108633 0.258715,-0.242631 0,-0.133996 -0.116422,-0.242629 -0.258715,-0.242629 z"
       id="path950"
       style="stroke-width:0.0569415" />
    <path
       class="st7"
       d="m -19.596932,98.854609 c 0,0.252555 0.21344,0.458792 0.480386,0.468167 v 0.331409 h -0.950777 v -1.544008 h 0.950777 v 0.276267 c -0.266946,0.0094 -0.480386,0.21561 -0.480386,0.468165 z"
       id="path972"
       style="fill:#808080;stroke-width:0.0569415" />
    <path
       class="st7"
       d="m -19.596932,101.20426 c 0,0.25256 0.21344,0.45879 0.480386,0.46817 v 0.33141 h -0.950777 v -1.54401 h 0.950777 v 0.27627 c -0.266946,0.009 -0.480386,0.2156 -0.480386,0.46816 z"
       id="path974"
       style="fill:#808080;stroke-width:0.0569415" />
    <path
       class="st7"
       d="m -19.596932,103.60905 c 0,0.25256 0.21344,0.45879 0.480386,0.46817 v 0.33141 h -0.950777 v -1.54401 h 0.950777 v 0.27627 c -0.266946,0.009 -0.480386,0.21561 -0.480386,0.46816 z"
       id="path976"
       style="fill:#808080;stroke-width:0.0569415" />
    <path
       class="st7"
       d="m -19.596932,106.01385 c 0,0.25255 0.21344,0.45879 0.480386,0.46816 v 0.33141 h -0.950777 v -1.54401 h 0.950777 v 0.27627 c -0.266946,0.009 -0.480386,0.21561 -0.480386,0.46817 z"
       id="path978"
       style="fill:#808080;stroke-width:0.0569415" />
    <path
       class="st7"
       d="m -19.596932,108.41864 c 0,0.25256 0.21344,0.45879 0.480386,0.46817 v 0.33141 h -0.950777 v -1.54401 h 0.950777 v 0.27626 c -0.266946,0.009 -0.480386,0.21561 -0.480386,0.46817 z"
       id="path980"
       style="fill:#808080;stroke-width:0.0569415" />
    <path
       class="st7"
       d="m -19.596932,110.93096 c 0,0.25256 0.21344,0.45879 0.480386,0.46817 v 0.33141 h -0.950777 v -1.54401 h 0.950777 v 0.27627 c -0.266946,0.009 -0.480386,0.21561 -0.480386,0.46816 z"
       id="path982"
       style="fill:#808080;stroke-width:0.0569415" />
    <path
       class="st7"
       d="m -22.056486,114.34708 v 0.89167 h -0.294582 c -0.01,-0.25035 -0.229903,-0.45052 -0.499202,-0.45052 -0.269298,0 -0.489206,0.20017 -0.499202,0.45052 h -0.35338 v -0.89167 z"
       id="path986"
       style="fill:#808080;stroke-width:0.0569415" />
    <path
       class="st7"
       d="m -24.540147,114.34708 v 0.89167 h -0.294582 c -0.01,-0.25035 -0.229904,-0.45052 -0.499202,-0.45052 -0.269299,0 -0.489206,0.20017 -0.499202,0.45052 h -0.353381 v -0.89167 z"
       id="path988"
       style="fill:#808080;stroke-width:0.0569415" />
    <path
       class="st7"
       d="m -27.095543,114.34708 v 0.89167 h -0.294582 c -0.01,-0.25035 -0.229904,-0.45052 -0.499202,-0.45052 -0.269298,0 -0.489206,0.20017 -0.499202,0.45052 h -0.353381 v -0.89167 z"
       id="path990"
       style="fill:#808080;stroke-width:0.0569415" />
    <path
       class="st7"
       d="m -29.633887,114.34708 v 0.89167 h -0.294582 c -0.01,-0.25035 -0.229904,-0.45052 -0.499202,-0.45052 -0.269299,0 -0.489206,0.20017 -0.499202,0.45052 h -0.353381 v -0.89167 z"
       id="path992"
       style="fill:#808080;stroke-width:0.0569415" />
    <path
       class="st7"
       d="m -32.168704,114.34708 v 0.89167 h -0.294582 c -0.01,-0.25035 -0.229903,-0.45052 -0.499202,-0.45052 -0.269298,0 -0.489206,0.20017 -0.499201,0.45052 h -0.353381 v -0.89167 z"
       id="path994"
       style="fill:#808080;stroke-width:0.0569415" />
    <path
       class="st7"
       d="m -34.714104,114.34708 v 0.89167 h -0.294582 c -0.01,-0.25035 -0.229903,-0.45052 -0.499202,-0.45052 -0.269298,0 -0.489206,0.20017 -0.499201,0.45052 h -0.353381 v -0.89167 z"
       id="path996"
       style="fill:#808080;stroke-width:0.0569415" />
    <path
       class="st7"
       d="m -38.166769,107.67421 v 1.54401 h -0.950777 v -0.27627 h 5.78e-4 c 0.266946,-0.01 0.479798,-0.21561 0.479798,-0.46817 0,-0.25255 -0.212852,-0.45824 -0.479798,-0.46816 h -5.78e-4 v -0.33141 z"
       id="path1000"
       style="fill:#808080;stroke-width:0.0569415" />
    <path
       class="st7"
       d="m -38.166769,110.18653 v 1.54401 h -0.950777 v -0.27627 h 5.78e-4 c 0.266946,-0.01 0.479798,-0.21561 0.479798,-0.46816 0,-0.25256 -0.212852,-0.45824 -0.479798,-0.46817 h -5.78e-4 v -0.33141 z"
       id="path1002"
       style="fill:#808080;stroke-width:0.0569415" />
    <rect
       x="-24.461945"
       y="103.41991"
       class="st8"
       width="1.2677021"
       height="1.7888442"
       id="rect1006"
       style="fill:#666666;stroke-width:0.0569415" />
    <rect
       x="-24.461945"
       y="103.84562"
       class="st9"
       width="1.2677021"
       height="0.9379853"
       id="rect1008"
       style="fill:#784421;stroke-width:0.0569415" />
    <rect
       x="-24.461945"
       y="107.34666"
       class="st8"
       width="1.2677021"
       height="1.8715589"
       id="rect1012"
       style="fill:#666666;stroke-width:0.0569415" />
    <rect
       x="-24.461945"
       y="107.67476"
       class="st10"
       width="1.2677021"
       height="1.2164582"
       id="rect1014"
       style="fill:#333333;stroke-width:0.0569415" />
    <rect
       x="-25.454468"
       y="93.494141"
       class="st11"
       width="2.5277605"
       height="1.0328314"
       id="rect1018"
       style="fill:#c87137;stroke-width:0.0569415" />
    <path
       class="st13"
       d="m -19.2265,83.624068 c -0.06644,0.0761 -0.159933,0.614295 -0.159933,0.614295 -0.01999,0.271855 -0.0541,0.485812 -0.09349,0.658409 -0.03234,0.13841 -0.06997,0.249798 -0.10819,0.339131 -0.122301,0.285089 -0.259302,0.369459 -0.318689,0.475884 -0.10231,0.184179 -0.235783,0.305493 -0.680302,0.297223 -0.444519,-0.0066 -2.981687,-0.04908 -2.981687,-0.04908 -0.421,-0.345749 -0.851407,-0.291709 -0.851407,-0.291709 0,0 -0.917849,-0.261377 -0.47333,-1.150837 0.444519,-0.889459 0.117009,-0.987062 0.117009,-0.987062 0,0 -0.80084,-1.218666 -0.06292,-1.947658 0.737925,-0.728992 0.118774,-1.048272 0.118774,-1.048272 -0.874338,-0.81667 -0.593868,-1.709437 -0.244603,-2.167125 0.351029,-0.457138 0.268123,-0.892769 -0.03234,-1.021251 -0.300462,-0.128483 -0.347501,-0.499598 -0.33633,-1.117201 0.01059,-0.617604 -0.111717,-1.113893 -0.111717,-1.113893 l -0.08996,-5.840763 c -0.02352,-0.462651 0.354556,-0.837073 0.872574,-1.130986 0.284586,-0.162121 0.612095,-0.298876 0.933725,-0.41192 0.854934,-0.30053 1.689877,-0.438939 1.689877,-0.438939 1.851574,-0.377731 2.280218,1.365896 2.280218,1.365896 0.138765,0.5586 0.194624,5.488399 0.194624,5.488399 0,0 0.144057,1.176203 0.05586,1.392365 -0.08643,0.214507 -0.276943,0.737264 -0.122302,1.233553 0.154641,0.496288 0,0.911516 -0.01823,1.004156 -0.01823,0.09264 -0.744981,1.069778 -0.11701,1.820827 0.627971,0.752706 0.273415,1.24017 0.206972,1.316269 -0.06821,0.0761 -0.717933,1.363689 -0.228727,1.64878 0.494498,0.286744 0.629735,0.985407 0.561528,1.061506 z"
       id="path1028"
       style="fill:#000000;stroke-width:0.0569415" />
    <path
       class="st14"
       d="m -19.2265,83.624068 c -0.06644,0.0761 -0.159933,0.614295 -0.159933,0.614295 -0.03587,0.489672 -0.115245,0.794612 -0.203444,0.99754 -0.05762,0.005 -0.120537,0.0083 -0.194624,0.0066 -0.444519,-0.0066 -2.981687,-0.04908 -2.981687,-0.04908 -0.420999,-0.345749 -0.851406,-0.291709 -0.851406,-0.291709 0,0 -0.91785,-0.261377 -0.473331,-1.150837 0.444519,-0.889459 0.11701,-0.987062 0.11701,-0.987062 0,0 -0.80084,-1.218663 -0.06291,-1.947658 0.737925,-0.728992 0.118774,-1.04827 0.118774,-1.04827 -0.874339,-0.81667 -0.593868,-1.709439 -0.244603,-2.167127 0.351029,-0.457138 0.268122,-0.892767 -0.03234,-1.021251 -0.300462,-0.128483 -0.347501,-0.499598 -0.336329,-1.117201 0.01058,-0.617602 -0.111717,-1.113891 -0.111717,-1.113891 L -24.733,68.507672 c -0.0071,-0.128484 0.01823,-0.248144 0.06644,-0.362842 1.036623,-0.588929 2.623602,-0.850308 2.623602,-0.850308 1.851575,-0.378282 2.280218,1.365345 2.280218,1.365345 0.138765,0.5586 0.194624,5.4884 0.194624,5.4884 0,0 0.144057,1.176203 0.05586,1.392365 -0.08644,0.214507 -0.276943,0.737264 -0.122302,1.233552 0.154641,0.496289 0,0.911516 -0.01823,1.004157 -0.01823,0.09264 -0.744981,1.069778 -0.11701,1.820827 0.627971,0.752704 0.273415,1.24017 0.206972,1.316266 -0.06821,0.0761 -0.717933,1.363692 -0.228727,1.648783 0.498026,0.285089 0.633263,0.983752 0.565056,1.059851 z"
       id="path1030"
       style="fill:#1a1a1a;stroke-width:0.0569415" />
    <path
       class="st13"
       d="m -19.2265,83.624068 c -0.06644,0.0761 -0.159933,0.614295 -0.159933,0.614295 -0.01999,0.271855 -0.0541,0.485812 -0.09349,0.658409 -0.880218,-0.01544 -2.487189,-0.04025 -2.487189,-0.04025 -0.421,-0.345748 -0.851407,-0.291708 -0.851407,-0.291708 0,0 -0.917849,-0.261379 -0.47333,-1.150837 0.444519,-0.889459 0.117009,-0.987064 0.117009,-0.987064 0,0 -0.800839,-1.218664 -0.06291,-1.947656 0.737925,-0.728992 0.118773,-1.048272 0.118773,-1.048272 -0.874338,-0.81667 -0.593868,-1.709437 -0.244603,-2.167125 0.351029,-0.457138 0.268123,-0.892769 -0.03234,-1.021253 -0.300462,-0.128484 -0.347501,-0.499596 -0.336329,-1.117199 0.01058,-0.617605 -0.111718,-1.113893 -0.111718,-1.113893 l -0.08996,-5.840764 c -0.0071,-0.128483 0.01823,-0.248144 0.06644,-0.362842 0.04528,-0.02537 0.08996,-0.05073 0.137001,-0.07444 0.854934,-0.30053 1.689877,-0.43894 1.689877,-0.43894 1.851575,-0.378282 2.280218,1.365345 2.280218,1.365345 0.138765,0.5586 0.194624,5.4884 0.194624,5.4884 0,0 0.144057,1.176203 0.05586,1.392365 -0.08643,0.214507 -0.276943,0.737264 -0.122302,1.233552 0.154641,0.496289 0,0.911516 -0.01823,1.004157 -0.01823,0.09264 -0.744981,1.069778 -0.11701,1.820827 0.627971,0.752704 0.273415,1.24017 0.206972,1.316266 -0.06821,0.0761 -0.717933,1.363692 -0.228727,1.648783 0.495674,0.285089 0.630911,0.983752 0.562704,1.059851 z"
       id="path1032"
       style="fill:#000000;stroke-width:0.0569415" />
    <g
       id="g1045"
       transform="matrix(0.0587988,0,0,0.05514316,-40.575168,65.538212)">
		<path
   class="st10"
   d="m 295.96,624.35 c -0.87,-0.33 -1.61,-0.82 -2.23,-1.45 -0.62,-0.63 -1.1,-1.42 -1.44,-2.36 -0.34,-0.94 -0.51,-2.01 -0.51,-3.19 v -10.46 h 3.02 v 10.23 c 0,0.94 0.16,1.78 0.48,2.51 0.32,0.73 0.78,1.31 1.4,1.73 0.62,0.42 1.34,0.63 2.17,0.63 1.21,0 2.19,-0.44 2.95,-1.31 0.75,-0.87 1.13,-2.06 1.13,-3.56 v -10.23 h 3.02 v 10.46 c 0,2.31 -0.63,4.14 -1.89,5.48 -1.26,1.34 -2.99,2.01 -5.2,2.01 -1.08,0.01 -2.03,-0.16 -2.9,-0.49 z"
   id="path1039" />

		<path
   class="st10"
   d="m 309.53,606.89 h 11.61 v 2.71 h -8.59 v 5.31 h 7.21 v 2.71 h -7.21 v 7.03 h -3.02 z"
   id="path1041" />

		<path
   class="st10"
   d="m 323.4,606.89 h 3.02 v 15.05 h 8.23 v 2.71 H 323.4 Z"
   id="path1043" />

	</g>
    <g
       id="g1049"
       transform="matrix(0.0587988,0,0,0.05514316,-40.575168,65.538212)">
		<path
   class="st10"
   d="m 81.44,820.04 c -1.09,-0.42 -2.04,-1 -2.84,-1.76 -0.8,-0.76 -1.43,-1.71 -1.89,-2.85 -0.46,-1.14 -0.68,-2.4 -0.68,-3.77 0,-0.86 0.09,-1.69 0.28,-2.48 0.19,-0.79 0.45,-1.53 0.8,-2.2 0.35,-0.67 0.78,-1.28 1.3,-1.83 0.52,-0.54 1.11,-1.01 1.75,-1.4 0.65,-0.39 1.37,-0.68 2.17,-0.89 0.8,-0.21 1.65,-0.31 2.55,-0.31 1.29,0 2.55,0.25 3.77,0.74 1.22,0.49 2.27,1.23 3.16,2.2 l -2.14,1.83 c -1.31,-1.29 -2.91,-1.93 -4.81,-1.93 -0.8,0 -1.54,0.15 -2.24,0.44 -0.7,0.29 -1.3,0.71 -1.81,1.24 -0.51,0.53 -0.91,1.19 -1.2,1.98 -0.29,0.79 -0.44,1.66 -0.44,2.6 0,1.18 0.23,2.24 0.7,3.19 0.47,0.95 1.15,1.69 2.04,2.24 0.89,0.55 1.92,0.82 3.07,0.82 1.46,0 2.78,-0.39 3.96,-1.18 v -2.99 h -4.35 v -2.71 h 7.35 v 7.42 c -0.82,0.68 -1.85,1.23 -3.08,1.62 -1.23,0.4 -2.53,0.6 -3.88,0.6 -1.26,0 -2.45,-0.21 -3.54,-0.62 z"
   id="path1047" />

	</g>
    <g
       id="g1055"
       transform="matrix(0.0587988,0,0,0.05514316,-40.575168,65.538212)">
		<path
   class="st10"
   d="m 127.09,820.5 -4.24,-6.33 h -2.39 v 6.33 h -3.02 V 802.74 H 124 c 0.82,0 1.57,0.09 2.24,0.28 0.67,0.19 1.24,0.45 1.71,0.79 0.47,0.34 0.87,0.75 1.18,1.23 0.31,0.48 0.55,1.01 0.7,1.59 0.15,0.58 0.23,1.2 0.23,1.87 0,1.42 -0.34,2.58 -1.02,3.48 -0.68,0.9 -1.64,1.52 -2.87,1.86 v 0.05 l 4.54,6.6 h -3.62 z m -6.63,-9.04 h 2.88 c 1.18,0 2.07,-0.27 2.69,-0.82 0.61,-0.54 0.92,-1.28 0.92,-2.2 0,-0.94 -0.29,-1.67 -0.88,-2.2 -0.59,-0.53 -1.43,-0.79 -2.51,-0.79 h -3.09 v 6.01 z"
   id="path1051" />

		<path
   class="st10"
   d="m 137.99,816.66 h -0.05 l -2.78,3.84 h -3.09 l 4.29,-6.21 -4.26,-5.98 h 3.24 l 2.59,3.83 h 0.06 l 2.61,-3.83 h 3.21 l -4.24,5.97 4.31,6.23 h -3.11 z"
   id="path1053" />

	</g>
    <g
       id="g1061"
       transform="matrix(0.0587988,0,0,0.05514316,-40.575168,65.538212)">
		<path
   class="st10"
   d="m 164.11,805.45 h -5.04 v -2.71 h 13.15 v 2.71 h -5.09 v 15.05 h -3.02 z"
   id="path1057" />

		<path
   class="st10"
   d="m 176.78,816.66 h -0.05 l -2.78,3.84 h -3.09 l 4.28,-6.21 -4.26,-5.98 h 3.23 l 2.59,3.83 h 0.06 l 2.61,-3.83 h 3.21 l -4.24,5.97 4.31,6.23 h -3.11 z"
   id="path1059" />

	</g>
    <g
       id="g1069"
       transform="matrix(0.0587988,0,0,0.05514316,-40.575168,65.538212)">
		<path
   class="st10"
   d="m 210.06,820.5 -4.24,-6.33 h -2.39 v 6.33 h -3.02 v -17.76 h 6.55 c 0.82,0 1.57,0.09 2.24,0.28 0.67,0.19 1.24,0.45 1.71,0.79 0.47,0.34 0.87,0.75 1.18,1.23 0.31,0.48 0.55,1.01 0.7,1.59 0.15,0.58 0.23,1.2 0.23,1.87 0,1.42 -0.34,2.58 -1.02,3.48 -0.68,0.9 -1.64,1.52 -2.87,1.86 v 0.05 l 4.54,6.6 h -3.61 z m -6.63,-9.04 h 2.88 c 1.18,0 2.07,-0.27 2.69,-0.82 0.61,-0.54 0.92,-1.28 0.92,-2.2 0,-0.94 -0.29,-1.67 -0.88,-2.2 -0.59,-0.53 -1.43,-0.79 -2.51,-0.79 h -3.09 v 6.01 z"
   id="path1063" />

		<path
   class="st10"
   d="m 214.71,818.91 1.42,-2.1 c 0.5,0.5 1.02,0.86 1.58,1.09 0.56,0.23 1.2,0.35 1.93,0.35 0.53,0 0.95,-0.11 1.25,-0.33 0.3,-0.22 0.46,-0.51 0.46,-0.87 0,-0.29 -0.17,-0.54 -0.52,-0.73 -0.35,-0.19 -0.98,-0.45 -1.9,-0.76 -0.37,-0.12 -0.69,-0.24 -0.98,-0.37 -0.29,-0.12 -0.58,-0.27 -0.87,-0.43 -0.29,-0.16 -0.55,-0.35 -0.76,-0.55 -0.21,-0.2 -0.4,-0.43 -0.58,-0.69 -0.17,-0.26 -0.31,-0.55 -0.4,-0.87 -0.09,-0.33 -0.13,-0.68 -0.13,-1.07 0,-0.99 0.41,-1.82 1.21,-2.47 0.8,-0.65 1.84,-0.98 3.08,-0.98 1.61,0 3.05,0.51 4.32,1.53 l -1.4,2.2 c -0.32,-0.29 -0.66,-0.54 -1.02,-0.74 -0.36,-0.2 -0.71,-0.34 -1.04,-0.43 -0.33,-0.09 -0.67,-0.13 -1,-0.13 -0.33,0 -0.63,0.09 -0.91,0.27 -0.28,0.18 -0.42,0.44 -0.42,0.78 0,0.2 0.09,0.38 0.26,0.56 0.17,0.18 0.39,0.33 0.65,0.47 0.26,0.14 0.61,0.29 1.04,0.46 1.29,0.51 2.1,0.85 2.42,1.01 0.81,0.43 1.33,0.96 1.59,1.58 0.15,0.38 0.22,0.83 0.22,1.33 0,0.52 -0.09,1 -0.28,1.45 -0.19,0.44 -0.46,0.83 -0.83,1.17 -0.37,0.34 -0.84,0.6 -1.43,0.79 -0.59,0.19 -1.26,0.29 -2.01,0.29 -1.96,-0.02 -3.6,-0.62 -4.95,-1.81 z"
   id="path1065" />

		<path
   class="st10"
   d="m 227.5,819.67 c -0.6,-0.68 -0.9,-1.69 -0.9,-3.03 v -5.96 h -1.49 v -2.38 h 1.49 v -4.05 l 2.79,-0.31 v 4.36 h 3.59 v 2.38 h -3.59 v 5.7 c 0,0.61 0.1,1.05 0.29,1.31 0.19,0.26 0.49,0.39 0.88,0.39 0.55,0 1.15,-0.17 1.81,-0.53 l 0.73,2.42 c -0.44,0.24 -0.88,0.41 -1.34,0.54 -0.45,0.12 -1.04,0.18 -1.76,0.18 -1.07,0.01 -1.9,-0.34 -2.5,-1.02 z"
   id="path1067" />

	</g>
    <g
       id="g1079"
       transform="matrix(0.0587988,0,0,0.05514316,-40.575168,65.538212)">
		<path
   class="st10"
   d="m 250.41,812.59 c 0.41,0.4 0.73,0.88 0.96,1.45 0.23,0.56 0.35,1.17 0.35,1.83 0,0.95 -0.25,1.8 -0.74,2.53 -0.49,0.73 -1.17,1.3 -2.04,1.7 -0.87,0.4 -1.84,0.6 -2.92,0.6 -1.46,0 -2.72,-0.34 -3.79,-1.01 -1.07,-0.67 -1.82,-1.55 -2.26,-2.63 l 2.5,-1.11 c 0.56,1.37 1.68,2.05 3.35,2.05 0.83,0 1.53,-0.24 2.09,-0.71 0.57,-0.47 0.85,-1.09 0.85,-1.84 0,-0.72 -0.28,-1.33 -0.84,-1.83 -0.56,-0.5 -1.35,-0.74 -2.38,-0.74 h -1.31 v -2.47 h 1.58 c 0.44,0 0.82,-0.06 1.15,-0.18 0.33,-0.12 0.59,-0.29 0.78,-0.5 0.19,-0.21 0.33,-0.45 0.43,-0.72 0.09,-0.27 0.14,-0.56 0.14,-0.87 0,-0.68 -0.25,-1.23 -0.75,-1.67 -0.5,-0.44 -1.11,-0.65 -1.83,-0.65 -1.24,0 -2.18,0.5 -2.84,1.49 l -2.31,-1.25 c 0.42,-0.88 1.09,-1.59 2.01,-2.12 0.92,-0.53 1.99,-0.81 3.2,-0.81 1.02,0 1.93,0.17 2.74,0.53 0.81,0.35 1.46,0.87 1.95,1.57 0.49,0.7 0.73,1.52 0.73,2.47 0,0.56 -0.09,1.09 -0.27,1.58 -0.18,0.49 -0.45,0.93 -0.79,1.32 -0.34,0.39 -0.75,0.71 -1.22,0.98 v 0.02 c 0.58,0.26 1.07,0.58 1.48,0.99 z"
   id="path1071" />

		<path
   class="st10"
   d="m 254.62,820.15 c -0.37,-0.36 -0.55,-0.8 -0.55,-1.31 0,-0.33 0.08,-0.64 0.25,-0.93 0.17,-0.29 0.4,-0.52 0.69,-0.68 0.29,-0.16 0.61,-0.25 0.96,-0.25 0.51,0 0.95,0.18 1.32,0.55 0.37,0.37 0.55,0.81 0.55,1.32 0,0.51 -0.18,0.95 -0.55,1.31 -0.37,0.36 -0.81,0.54 -1.32,0.54 -0.53,0 -0.98,-0.18 -1.35,-0.55 z"
   id="path1073" />

		<path
   class="st10"
   d="m 270.32,812.59 c 0.41,0.4 0.73,0.88 0.96,1.45 0.23,0.56 0.35,1.17 0.35,1.83 0,0.95 -0.25,1.8 -0.74,2.53 -0.49,0.73 -1.17,1.3 -2.04,1.7 -0.87,0.4 -1.84,0.6 -2.92,0.6 -1.46,0 -2.72,-0.34 -3.78,-1.01 -1.07,-0.67 -1.82,-1.55 -2.26,-2.63 l 2.5,-1.11 c 0.56,1.37 1.68,2.05 3.34,2.05 0.83,0 1.53,-0.24 2.09,-0.71 0.57,-0.47 0.85,-1.09 0.85,-1.84 0,-0.72 -0.28,-1.33 -0.84,-1.83 -0.56,-0.5 -1.35,-0.74 -2.37,-0.74 h -1.31 v -2.47 h 1.57 c 0.44,0 0.82,-0.06 1.15,-0.18 0.33,-0.12 0.59,-0.29 0.78,-0.5 0.19,-0.21 0.33,-0.45 0.43,-0.72 0.09,-0.27 0.14,-0.56 0.14,-0.87 0,-0.68 -0.25,-1.23 -0.75,-1.67 -0.5,-0.44 -1.11,-0.65 -1.82,-0.65 -1.24,0 -2.19,0.5 -2.84,1.49 l -2.31,-1.25 c 0.42,-0.88 1.09,-1.59 2.01,-2.12 0.92,-0.53 1.99,-0.81 3.2,-0.81 1.02,0 1.93,0.17 2.74,0.53 0.81,0.35 1.46,0.87 1.95,1.57 0.49,0.7 0.73,1.52 0.73,2.47 0,0.56 -0.09,1.09 -0.27,1.58 -0.18,0.49 -0.45,0.93 -0.79,1.32 -0.34,0.39 -0.75,0.71 -1.22,0.98 v 0.02 c 0.58,0.26 1.06,0.58 1.47,0.99 z"
   id="path1075" />

		<path
   class="st10"
   d="m 288.27,802.74 -6.62,17.76 h -2.67 l -6.63,-17.76 h 3.26 l 4.66,13.43 h 0.05 l 4.7,-13.43 z"
   id="path1077" />

	</g>
    <g
       id="g1083"
       transform="matrix(0.0587988,0,0,0.05514316,-40.575168,65.538212)">
		<path
   class="st10"
   d="m 303.39,820.04 c -1.09,-0.42 -2.04,-1 -2.84,-1.76 -0.8,-0.76 -1.43,-1.71 -1.89,-2.85 -0.46,-1.14 -0.68,-2.4 -0.68,-3.77 0,-0.86 0.09,-1.69 0.28,-2.48 0.19,-0.79 0.45,-1.53 0.8,-2.2 0.35,-0.67 0.78,-1.28 1.3,-1.83 0.52,-0.54 1.11,-1.01 1.75,-1.4 0.65,-0.39 1.37,-0.68 2.17,-0.89 0.8,-0.21 1.65,-0.31 2.55,-0.31 1.29,0 2.55,0.25 3.77,0.74 1.22,0.49 2.27,1.23 3.16,2.2 l -2.14,1.83 c -1.31,-1.29 -2.91,-1.93 -4.81,-1.93 -0.8,0 -1.54,0.15 -2.24,0.44 -0.7,0.29 -1.3,0.71 -1.81,1.24 -0.51,0.53 -0.91,1.19 -1.2,1.98 -0.29,0.79 -0.44,1.66 -0.44,2.6 0,1.18 0.23,2.24 0.7,3.19 0.47,0.95 1.15,1.69 2.04,2.24 0.89,0.55 1.92,0.82 3.07,0.82 1.46,0 2.78,-0.39 3.96,-1.18 v -2.99 h -4.35 v -2.71 h 7.35 v 7.42 c -0.82,0.68 -1.85,1.23 -3.08,1.62 -1.23,0.4 -2.53,0.6 -3.88,0.6 -1.27,0 -2.45,-0.21 -3.54,-0.62 z"
   id="path1081" />

	</g>
    <g
       id="teca_2_"
       transform="matrix(0.0587988,0,0,0.05514316,-40.575168,65.538212)">
		<path
   class="st10"
   d="m 96.58,776.37 c -1.93,-6.94 -8.95,-11.16 -16.04,-9.64 -6.71,1.44 -11.4,7.98 -10.53,14.74 0.5,3.9 2.39,7.02 5.55,9.34 2.54,1.87 5.42,2.68 8.58,2.55 2.91,-0.12 5.57,-0.88 7.8,-2.87 1.28,-1.14 1.53,-2.84 0.54,-4.24 -0.96,-1.36 -2.48,-1.65 -4.02,-0.77 -0.26,0.15 -0.49,0.33 -0.72,0.52 -1.12,0.87 -2.43,1.17 -3.81,1.26 -3.01,0.21 -5.86,-1.51 -7.01,-4.24 -0.16,-0.38 -0.16,-0.38 0.25,-0.38 h 8.51 c 2.69,0 5.39,0 8.08,0 0.26,0 0.52,-0.01 0.78,-0.04 1.27,-0.12 2.27,-1.04 2.44,-2.3 0.18,-1.33 -0.05,-2.64 -0.4,-3.93 z m -6.25,1.18 c -4.46,0 -8.92,0 -13.37,0.01 -0.33,0 -0.41,-0.05 -0.28,-0.38 0.99,-2.63 2.92,-4.1 5.65,-4.52 1.75,-0.28 3.45,-0.06 5.04,0.76 1.7,0.87 2.8,2.24 3.36,4.13 z"
   id="path1085" />

		<path
   class="st10"
   d="m 73.3,763.26 c -0.25,0.03 -0.5,0.04 -0.75,0.04 -2.61,0 -5.22,0.01 -7.83,-0.01 -0.28,0 -0.35,0.07 -0.35,0.35 0.01,4.49 0.01,8.98 0.01,13.47 0,4.36 0,8.72 0,13.08 0,1.84 -1.35,3.16 -3.18,3.13 -1.57,-0.02 -2.89,-1.32 -2.95,-2.89 -0.01,-0.15 0,-0.31 0,-0.46 0,-8.76 0,-17.51 0.01,-26.27 0,-0.35 -0.08,-0.42 -0.42,-0.42 -2.63,0.02 -5.27,0.01 -7.9,0.01 -1.52,0 -2.72,-0.87 -3.07,-2.26 -0.58,-2.35 1.26,-3.86 2.88,-3.86 6.81,0.03 13.62,0.01 20.43,0.01 0.95,0 1.9,-0.01 2.85,0.01 1.52,0.03 2.81,1.32 2.88,2.88 0.05,1.6 -1.09,3.01 -2.61,3.19 z"
   id="path1087" />

		<path
   class="st10"
   d="m 125.02,788.45 c -0.23,0.57 -0.6,1.05 -1.04,1.47 -1.9,1.82 -4.19,2.84 -6.76,3.27 -0.76,0.13 -1.53,0.17 -2.22,0.18 -6.09,-0.02 -11.39,-3.74 -13.13,-9.33 -2.43,-7.81 2.26,-15.61 10.07,-17.31 3.49,-0.76 6.86,-0.29 9.99,1.49 0.86,0.49 1.63,1.1 2.3,1.82 0.91,0.98 1.33,2.11 0.86,3.42 -0.65,1.84 -2.84,2.6 -4.51,1.6 -0.51,-0.31 -0.97,-0.68 -1.45,-1.02 -4.62,-3.34 -10.31,-0.76 -11.57,4.25 -0.72,2.88 0.35,5.23 2.46,7.16 2.74,2.52 6.8,2.11 9.12,0.21 0.44,-0.36 0.89,-0.71 1.37,-1.01 1.25,-0.77 2.53,-0.65 3.73,0.36 0.99,0.82 1.29,2.18 0.78,3.44 z"
   id="path1089" />

		<path
   class="st10"
   d="m 163.19,779.02 c 0.02,1.74 -0.23,3.44 -0.66,5.13 -0.33,1.27 -1.39,2.09 -2.67,2.07 -1.23,-0.02 -2.28,-0.89 -2.55,-2.13 -0.1,-0.46 -0.05,-0.91 0.06,-1.37 1.31,-5.61 -0.09,-10.47 -4.21,-14.47 -2.48,-2.41 -5.54,-3.67 -9,-3.93 -2.78,-0.21 -5.39,0.37 -7.87,1.63 -1.61,0.82 -3.43,0.04 -3.89,-1.65 -0.32,-1.19 0.22,-2.45 1.33,-3.04 2.08,-1.1 4.29,-1.82 6.63,-2.13 5.33,-0.7 10.21,0.51 14.55,3.66 4.53,3.29 7.18,7.78 8.06,13.3 0.16,0.97 0.23,1.95 0.22,2.93 z"
   id="path1091" />

		<path
   class="st10"
   d="m 156.04,791 c -0.01,1.24 -0.81,2.04 -2.05,2.05 -0.4,0 -0.81,0 -1.21,0 -1.14,-0.01 -1.91,-0.75 -1.99,-1.89 0,-0.03 -0.01,-0.06 -0.03,-0.12 -3.92,2.64 -8.13,3.34 -12.62,1.86 -3.42,-1.13 -6,-3.33 -7.73,-6.49 -3.44,-6.27 -1.36,-13.51 3.17,-17.21 -0.08,1.02 0.12,1.95 0.7,2.77 0.57,0.82 1.35,1.35 2.34,1.61 -1.92,1.99 -2.81,4.34 -2.52,7.08 0.24,2.23 1.25,4.09 2.95,5.58 3.23,2.83 8.98,2.99 12.33,-1.19 1.08,2.65 4.41,3.5 6.67,1.41 v 2.07 c 0,0.83 0,1.65 -0.01,2.47 z"
   id="path1093" />

		<path
   class="st10"
   d="m 155.68,784.51 c -0.52,1.43 -2.02,2.14 -3.43,1.65 -1.38,-0.49 -2.1,-1.98 -1.61,-3.41 1.02,-3.02 0.63,-5.83 -1.35,-8.34 -2.48,-3.16 -6.77,-4.1 -10.42,-2.37 -1.14,0.54 -2.27,0.41 -3.11,-0.36 -1.38,-1.27 -1.07,-3.5 0.62,-4.37 1.5,-0.77 3.1,-1.24 4.78,-1.4 3.75,-0.36 7.13,0.6 10.08,2.94 3,2.38 4.71,5.51 5.18,9.31 0.02,0.16 0.05,0.33 0.05,0.49 0.01,0.37 0,0.73 0,1.1 0.06,1.63 -0.23,3.22 -0.79,4.76 z"
   id="path1095" />

		<path
   class="st10"
   d="m 142.71,773.08 c -3.67,-0.02 -6.65,2.94 -6.67,6.62 -0.02,3.67 2.91,6.65 6.57,6.68 3.71,0.03 6.7,-2.89 6.74,-6.59 0.04,-3.66 -2.97,-6.69 -6.64,-6.71 z m -0.03,12.27 c -3.08,0 -5.62,-2.54 -5.62,-5.61 0,-3.09 2.52,-5.61 5.62,-5.61 3.09,0 5.61,2.51 5.62,5.6 0,3.09 -2.53,5.62 -5.62,5.62 z"
   id="path1097" />

	</g>
    <path
       class="st0"
       d="m -31.989513,92.077256 c 1.475634,-1.535755 2.220002,-3.085546 1.687974,-3.593796 -0.518756,-0.491019 -2.056882,0.154901 -3.616511,1.462214 -0.0066,-0.0062 -0.01478,-0.01244 -0.02133,-0.01882 -1.566181,-1.380855 -3.509502,-2.431811 -4.318043,-1.663853 -0.841635,0.797627 0.403515,2.769685 1.913586,4.264759 l 0.103819,-0.0094 c -0.573186,0.911689 -0.760832,1.671829 -0.414938,1.998697 0.116922,0.111031 0.286593,0.164152 0.497421,0.164152 0.439633,0 1.057336,-0.229876 1.748955,-0.641133 l 0.06098,0.10784 c 0.871202,0.556744 1.622122,0.842933 2.182036,0.842933 0.303056,0 0.548491,-0.08439 0.727905,-0.251732 0.276682,-0.262738 0.480959,-0.814857 -0.120281,-1.956422 -0.120282,-0.228441 -0.26509,-0.464538 -0.431569,-0.705422 z m -5.801907,-3.37333 c 0.05275,-0.05009 0.143296,-0.07657 0.263578,-0.07657 0.520436,0 1.61893,0.484799 2.878695,1.532564 -0.04116,0.03749 -0.08064,0.07514 -0.120282,0.112625 -0.503973,0.472357 -0.966789,0.989858 -1.376687,1.538786 -1.431284,-1.509113 -1.940129,-2.827435 -1.645304,-3.107401 z m 5.887583,5.590896 c -0.15472,0.147083 -0.810221,0.111029 -1.930218,-0.57557 v -2.82105 c 0.737817,0.728713 1.332337,1.490447 1.686463,2.164443 0.355805,0.673997 0.378819,1.105513 0.243755,1.232177 z"
       id="path1212"
       style="fill:#f2f2f2;stroke-width:0.0163703" />
    <rect
       style="fill:#808000;stroke-width:0.0569415"
       id="rect1458"
       width="0.59395754"
       height="0.47347558"
       x="-35.689404"
       y="112.19225" />
    <rect
       style="fill:#808000;stroke-width:0.0569415"
       id="rect1458-6"
       width="0.59395754"
       height="0.47347558"
       x="-33.170547"
       y="112.21196"
       inkscape:transform-center-x="2.3015875"
       inkscape:transform-center-y="-0.03481773" />
    <rect
       style="fill:#808000;stroke-width:0.0569415"
       id="rect1458-9"
       width="0.59395754"
       height="0.47347558"
       x="-30.626204"
       y="112.18002"
       inkscape:transform-center-x="-1.2704744"
       inkscape:transform-center-y="1.0536363" />
    <rect
       style="fill:#808000;stroke-width:0.0569415"
       id="rect1458-2"
       width="0.59395754"
       height="0.47347558"
       x="-28.085257"
       y="112.19971" />
    <rect
       style="fill:#808000;stroke-width:0.0569415"
       id="rect1458-4"
       width="0.59395754"
       height="0.47347558"
       x="-25.565308"
       y="112.20956" />
    <rect
       style="fill:#808000;stroke-width:0.0569415"
       id="rect1458-0"
       width="0.59395754"
       height="0.47347558"
       x="-23.097857"
       y="112.20955" />
    <path
       class="st6"
       d="m -35.384998,111.45482 c -0.58446,0 -1.058379,0.44446 -1.058379,0.99258 0,0.54812 0.473919,0.99258 1.058379,0.99258 0.58446,0 1.058378,-0.44446 1.058378,-0.99258 0,-0.54812 -0.473918,-0.99258 -1.058378,-0.99258 z m 0,1.43372 c -0.259891,0 -0.470391,-0.19741 -0.470391,-0.44114 0,-0.24373 0.2105,-0.44115 0.470391,-0.44115 0.259891,0 0.47039,0.19742 0.47039,0.44115 0,0.24373 -0.210499,0.44114 -0.47039,0.44114 z"
       id="path956"
       style="fill:#808080;stroke-width:0.0569415" />
    <path
       class="st6"
       d="m -32.85665,111.45482 c -0.58446,0 -1.058378,0.44446 -1.058378,0.99258 0,0.54812 0.473918,0.99258 1.058378,0.99258 0.58446,0 1.058379,-0.44446 1.058379,-0.99258 0,-0.54812 -0.473919,-0.99258 -1.058379,-0.99258 z m 0,1.43372 c -0.259891,0 -0.47039,-0.19741 -0.47039,-0.44114 0,-0.24373 0.210499,-0.44115 0.47039,-0.44115 0.259891,0 0.470391,0.19742 0.470391,0.44115 0,0.24373 -0.2105,0.44114 -0.470391,0.44114 z"
       id="path958"
       style="fill:#808080;stroke-width:0.0569415" />
    <path
       class="st6"
       d="m -30.328301,111.45482 c -0.58446,0 -1.058379,0.44446 -1.058379,0.99258 0,0.54812 0.473919,0.99258 1.058379,0.99258 0.58446,0 1.058378,-0.44446 1.058378,-0.99258 0,-0.54812 -0.473918,-0.99258 -1.058378,-0.99258 z m 0,1.43372 c -0.259891,0 -0.470391,-0.19741 -0.470391,-0.44114 0,-0.24373 0.2105,-0.44115 0.470391,-0.44115 0.25989,0 0.47039,0.19742 0.47039,0.44115 0,0.24373 -0.2105,0.44114 -0.47039,0.44114 z"
       id="path960"
       style="fill:#808080;stroke-width:0.0569415" />
    <path
       class="st6"
       d="m -27.799953,111.45482 c -0.58446,0 -1.058378,0.44446 -1.058378,0.99258 0,0.54812 0.473918,0.99258 1.058378,0.99258 0.58446,0 1.058379,-0.44446 1.058379,-0.99258 0,-0.54812 -0.473919,-0.99258 -1.058379,-0.99258 z m 0,1.43372 c -0.259891,0 -0.47039,-0.19741 -0.47039,-0.44114 0,-0.24373 0.210499,-0.44115 0.47039,-0.44115 0.259891,0 0.470391,0.19742 0.470391,0.44115 0,0.24373 -0.2105,0.44114 -0.470391,0.44114 z"
       id="path962"
       style="fill:#808080;stroke-width:0.0569415" />
    <path
       class="st6"
       d="m -25.271604,111.45482 c -0.58446,0 -1.058379,0.44446 -1.058379,0.99258 0,0.54812 0.473919,0.99258 1.058379,0.99258 0.58446,0 1.058378,-0.44446 1.058378,-0.99258 0,-0.54812 -0.473918,-0.99258 -1.058378,-0.99258 z m 0,1.43372 c -0.259891,0 -0.470391,-0.19741 -0.470391,-0.44114 0,-0.24373 0.2105,-0.44115 0.470391,-0.44115 0.25989,0 0.47039,0.19742 0.47039,0.44115 0,0.24373 -0.2105,0.44114 -0.47039,0.44114 z"
       id="path964"
       style="fill:#808080;stroke-width:0.0569415" />
    <path
       class="st6"
       d="m -22.802055,111.45482 c -0.58446,0 -1.058378,0.44446 -1.058378,0.99258 0,0.54812 0.473918,0.99258 1.058378,0.99258 0.58446,0 1.058379,-0.44446 1.058379,-0.99258 0,-0.54812 -0.473919,-0.99258 -1.058379,-0.99258 z m 0,1.43372 c -0.25989,0 -0.47039,-0.19741 -0.47039,-0.44114 0,-0.24373 0.2105,-0.44115 0.47039,-0.44115 0.259891,0 0.470391,0.19742 0.470391,0.44115 0,0.24373 -0.2105,0.44114 -0.470391,0.44114 z"
       id="path966"
       style="fill:#808080;stroke-width:0.0569415" />
    <path
       style="fill:none;stroke:#000000;stroke-width:0.0552751px;stroke-linecap:butt;stroke-linejoin:miter;stroke-opacity:1"
       d="m -36.620255,111.27555 15.13833,0.0321 -0.01259,2.27678 -15.159332,0.0498 z"
       id="path1537"
       sodipodi:nodetypes="ccccc" />
    <ellipse
       style="fill:#1a1a1a;stroke-width:0.474741"
       id="path1547"
       cx="-22.880922"
       cy="91.727318"
       rx="1.1024868"
       ry="1.1693043" />
    <ellipse
       style="fill:#e6e6e6;stroke-width:0.496891"
       id="path1549"
       cx="-22.859303"
       cy="91.727318"
       rx="0.86469555"
       ry="0.86043137" />
    <path
       class="st12"
       d="m -21.443214,86.529008 c 0,0.685429 0.06115,2.023754 0.100546,2.778113 0.03057,0.619258 -0.01823,1.2909 -0.419236,1.785536 -0.269886,0.334167 -0.512725,0.705281 -0.906677,0.926405 -0.05233,0.03033 -0.10819,0.05735 -0.167577,0.08106 l -0.417471,-0.416882 c 0,0 1.191263,-1.064814 1.255942,-1.770095 0.06468,-0.705281 -0.156405,-3.34333 -0.156405,-3.525302 0,-0.170394 0.167577,-1.426003 0.600924,-1.787191 0.0541,-0.04411 0.131121,-0.05239 0.194624,-0.01876 l 0.09525,0.05239 0.239311,0.131791 c 0.07938,0.04412 0.09173,0.148336 0.01999,0.205685 -0.161697,0.132894 -0.439227,0.934675 -0.439227,1.557243 z"
       id="path1022"
       style="fill:#d3bc5f;stroke-width:0.0569415" />
  </g>
  <style
     type="text/css"
     id="style932">
	.st0{fill:#FFFFFF;}
	.st1{fill:#BFBFBF;}
	.st2{fill:none;stroke:#1C1E22;stroke-width:2;stroke-miterlimit:10;}
	.st3{fill:#D1AA85;}
	.st4{fill:#402C1F;}
	.st5{fill:#FFAF7C;}
	.st6{fill:#696B6F;}
	.st7{fill:#686562;}
	.st8{fill:#615E5D;}
	.st9{fill:#51362E;}
	.st10{fill:#25242A;}
	.st11{fill:#765F4D;}
	.st12{fill:#E7E494;}
	.st13{fill:#091A3E;}
	.st14{fill:#18284A;}
</style>
  <style
     type="text/css"
     id="style1210">
	.st0{fill:#ECEBE3;}
</style>
</svg>
